# xmcd CD database file
#
# Track frame offsets:
#	150
#	10532
#	23945
#	40320
#	56360
#	67420
#	80887
#	96120
#	115802
#	134160
#	143457
#	153372
#	171532
#	183365
#	202187
#	217830
#	234735
#	256070
#
# Disc length: 3622 seconds
#
# Revision: 1
# Processed by: cddbd v1.5.1PL0 Copyright (c) Steve Scherf et al.
# Submitted via: CDex 1.51
#
DISCID=040e2412
DTITLE=オーケストラ - 映画音楽大全集　Vol.２５
DYEAR=1900
DGENRE=Instrumental
TTITLE0=猿の惑星
TTITLE1=赤ちゃんよ永遠に
TTITLE2=イルカの日
TTITLE3=未知との遭遇
TTITLE4=スター・ウォーズ
TTITLE5=スター・ウォーズ　帝国の逆襲
TTITLE6=スター･ウォーズ　ジェダイの復讐
TTITLE7=スーパーマン
TTITLE8=スーパーマン?　電子の要塞　
TTITLE9=スター・トレック
TTITLE10=ブラック･ホール
TTITLE11=１９４１
TTITLE12=フラッシュ・ゴードン
TTITLE13=メトロポリス
TTITLE14=ネバーエンディング・ストーリー
TTITLE15=ゴーストバスターズ
TTITLE16=バック・トゥ・ザ・フューチャー
TTITLE17=バットマン　バット・ダンス
EXTD=
EXTT0=
EXTT1=
EXTT2=
EXTT3=
EXTT4=
EXTT5=
EXTT6=
EXTT7=
EXTT8=
EXTT9=
EXTT10=
EXTT11=
EXTT12=
EXTT13=
EXTT14=
EXTT15=
EXTT16=
EXTT17=
PLAYORDER=
